<mxfile host="app.diagrams.net" modified="2021-12-17T02:18:57.248Z" agent="5.0 (Windows NT 10.0; Win64; x64) AppleWebKit/537.36 (KHTML, like Gecko) Chrome/96.0.4664.110 Safari/537.36" etag="kkPFIiUk9FuMxSRGyO8K" compressed="false" version="15.9.6" type="github">
  <diagram id="pm1UEt8zXJ4ZpkB4dsPU" name="Page-1">
    <mxGraphModel dx="2500" dy="829" grid="1" gridSize="10" guides="1" tooltips="1" connect="1" arrows="1" fold="1" page="1" pageScale="1" pageWidth="827" pageHeight="1169" math="0" shadow="0">
      <root>
        <mxCell id="0" />
        <mxCell id="1" parent="0" />
        <mxCell id="ATTjL98YTlTVzGtDdcw5-6" value="" style="edgeStyle=orthogonalEdgeStyle;rounded=0;orthogonalLoop=1;jettySize=auto;html=1;fontSize=20;" edge="1" parent="1" source="ATTjL98YTlTVzGtDdcw5-2" target="ATTjL98YTlTVzGtDdcw5-4">
          <mxGeometry relative="1" as="geometry" />
        </mxCell>
        <mxCell id="ATTjL98YTlTVzGtDdcw5-7" style="edgeStyle=orthogonalEdgeStyle;rounded=0;orthogonalLoop=1;jettySize=auto;html=1;entryX=0;entryY=0.5;entryDx=0;entryDy=0;fontSize=20;" edge="1" parent="1" source="ATTjL98YTlTVzGtDdcw5-2" target="ATTjL98YTlTVzGtDdcw5-3">
          <mxGeometry relative="1" as="geometry" />
        </mxCell>
        <mxCell id="ATTjL98YTlTVzGtDdcw5-8" style="edgeStyle=orthogonalEdgeStyle;rounded=0;orthogonalLoop=1;jettySize=auto;html=1;entryX=0;entryY=0.5;entryDx=0;entryDy=0;fontSize=20;" edge="1" parent="1" source="ATTjL98YTlTVzGtDdcw5-2" target="ATTjL98YTlTVzGtDdcw5-5">
          <mxGeometry relative="1" as="geometry" />
        </mxCell>
        <mxCell id="ATTjL98YTlTVzGtDdcw5-2" value="1&lt;sup&gt;o&lt;/sup&gt;&amp;nbsp;Trimestre" style="triangle;whiteSpace=wrap;html=1;shadow=1;fillColor=#B3FF66;rotation=0;" vertex="1" parent="1">
          <mxGeometry x="-800" y="80" width="90" height="120" as="geometry" />
        </mxCell>
        <mxCell id="ATTjL98YTlTVzGtDdcw5-3" value="&lt;font style=&quot;font-size: 20px&quot;&gt;MRU&lt;br&gt;MRUV&lt;/font&gt;" style="shape=hexagon;perimeter=hexagonPerimeter2;whiteSpace=wrap;html=1;fixedSize=1;shadow=1;" vertex="1" parent="1">
          <mxGeometry x="-670" y="20" width="120" height="60" as="geometry" />
        </mxCell>
        <mxCell id="ATTjL98YTlTVzGtDdcw5-4" value="&lt;span style=&quot;font-size: 20px&quot;&gt;Leis de Newton&lt;/span&gt;" style="shape=hexagon;perimeter=hexagonPerimeter2;whiteSpace=wrap;html=1;fixedSize=1;shadow=1;" vertex="1" parent="1">
          <mxGeometry x="-670" y="110" width="120" height="60" as="geometry" />
        </mxCell>
        <mxCell id="ATTjL98YTlTVzGtDdcw5-5" value="&lt;span style=&quot;font-size: 20px&quot;&gt;MCU e Gravitação&lt;/span&gt;" style="shape=hexagon;perimeter=hexagonPerimeter2;whiteSpace=wrap;html=1;fixedSize=1;shadow=1;" vertex="1" parent="1">
          <mxGeometry x="-670" y="200" width="120" height="60" as="geometry" />
        </mxCell>
        <mxCell id="ATTjL98YTlTVzGtDdcw5-9" value="" style="edgeStyle=orthogonalEdgeStyle;rounded=0;orthogonalLoop=1;jettySize=auto;html=1;fontSize=20;" edge="1" parent="1" source="ATTjL98YTlTVzGtDdcw5-12" target="ATTjL98YTlTVzGtDdcw5-14">
          <mxGeometry relative="1" as="geometry" />
        </mxCell>
        <mxCell id="ATTjL98YTlTVzGtDdcw5-10" style="edgeStyle=orthogonalEdgeStyle;rounded=0;orthogonalLoop=1;jettySize=auto;html=1;entryX=0;entryY=0.5;entryDx=0;entryDy=0;fontSize=20;" edge="1" parent="1" source="ATTjL98YTlTVzGtDdcw5-12" target="ATTjL98YTlTVzGtDdcw5-13">
          <mxGeometry relative="1" as="geometry" />
        </mxCell>
        <mxCell id="ATTjL98YTlTVzGtDdcw5-11" style="edgeStyle=orthogonalEdgeStyle;rounded=0;orthogonalLoop=1;jettySize=auto;html=1;entryX=0;entryY=0.5;entryDx=0;entryDy=0;fontSize=20;" edge="1" parent="1" source="ATTjL98YTlTVzGtDdcw5-12" target="ATTjL98YTlTVzGtDdcw5-15">
          <mxGeometry relative="1" as="geometry" />
        </mxCell>
        <mxCell id="ATTjL98YTlTVzGtDdcw5-12" value="2&lt;sup&gt;o&lt;/sup&gt;&amp;nbsp;Trimestre" style="triangle;whiteSpace=wrap;html=1;shadow=1;fillColor=#FFFF99;rotation=0;" vertex="1" parent="1">
          <mxGeometry x="-520" y="80" width="90" height="120" as="geometry" />
        </mxCell>
        <mxCell id="ATTjL98YTlTVzGtDdcw5-13" value="&lt;font style=&quot;font-size: 16px&quot;&gt;Universo e Sistema Solar&lt;/font&gt;" style="shape=hexagon;perimeter=hexagonPerimeter2;whiteSpace=wrap;html=1;fixedSize=1;shadow=1;" vertex="1" parent="1">
          <mxGeometry x="-390" y="20" width="120" height="60" as="geometry" />
        </mxCell>
        <mxCell id="ATTjL98YTlTVzGtDdcw5-14" value="&lt;span style=&quot;font-size: 20px&quot;&gt;Astronomia&lt;/span&gt;" style="shape=hexagon;perimeter=hexagonPerimeter2;whiteSpace=wrap;html=1;fixedSize=1;shadow=1;" vertex="1" parent="1">
          <mxGeometry x="-390" y="110" width="120" height="60" as="geometry" />
        </mxCell>
        <mxCell id="ATTjL98YTlTVzGtDdcw5-15" value="&lt;span style=&quot;font-size: 20px&quot;&gt;Óptica&lt;/span&gt;" style="shape=hexagon;perimeter=hexagonPerimeter2;whiteSpace=wrap;html=1;fixedSize=1;shadow=1;" vertex="1" parent="1">
          <mxGeometry x="-390" y="200" width="120" height="60" as="geometry" />
        </mxCell>
        <mxCell id="ATTjL98YTlTVzGtDdcw5-16" value="" style="edgeStyle=orthogonalEdgeStyle;rounded=0;orthogonalLoop=1;jettySize=auto;html=1;fontSize=20;" edge="1" source="ATTjL98YTlTVzGtDdcw5-19" target="ATTjL98YTlTVzGtDdcw5-21" parent="1">
          <mxGeometry relative="1" as="geometry" />
        </mxCell>
        <mxCell id="ATTjL98YTlTVzGtDdcw5-17" style="edgeStyle=orthogonalEdgeStyle;rounded=0;orthogonalLoop=1;jettySize=auto;html=1;entryX=0;entryY=0.5;entryDx=0;entryDy=0;fontSize=20;" edge="1" source="ATTjL98YTlTVzGtDdcw5-19" target="ATTjL98YTlTVzGtDdcw5-20" parent="1">
          <mxGeometry relative="1" as="geometry" />
        </mxCell>
        <mxCell id="ATTjL98YTlTVzGtDdcw5-19" value="2&lt;sup&gt;o&lt;/sup&gt;&amp;nbsp;Trimestre" style="triangle;whiteSpace=wrap;html=1;shadow=1;fillColor=#FFCC99;rotation=0;" vertex="1" parent="1">
          <mxGeometry x="-250" y="80" width="90" height="120" as="geometry" />
        </mxCell>
        <mxCell id="ATTjL98YTlTVzGtDdcw5-20" value="&lt;font&gt;&lt;span style=&quot;font-size: 16px&quot;&gt;Ondulatória&lt;/span&gt;&lt;br&gt;&lt;font style=&quot;font-size: 11px&quot;&gt;(mecânicas e eletromagnéticas)&lt;/font&gt;&lt;br&gt;&lt;/font&gt;" style="shape=hexagon;perimeter=hexagonPerimeter2;whiteSpace=wrap;html=1;fixedSize=1;shadow=1;" vertex="1" parent="1">
          <mxGeometry x="-120" y="60" width="120" height="60" as="geometry" />
        </mxCell>
        <mxCell id="ATTjL98YTlTVzGtDdcw5-21" value="&lt;font style=&quot;font-size: 16px&quot;&gt;Radiações e aplicações&lt;/font&gt;" style="shape=hexagon;perimeter=hexagonPerimeter2;whiteSpace=wrap;html=1;fixedSize=1;shadow=1;" vertex="1" parent="1">
          <mxGeometry x="-120" y="160" width="120" height="60" as="geometry" />
        </mxCell>
      </root>
    </mxGraphModel>
  </diagram>
</mxfile>
